<svg width="50" height="50" viewBox="0 0 50 50" fill="none" xmlns="http://www.w3.org/2000/svg">
<g clip-path="url(#clip0_443_12)">
<path fill-rule="evenodd" clip-rule="evenodd" d="M0 25C0 45.1629 4.83711 50 25 50C45.1629 50 50 45.1629 50 25C50 4.83711 45.1629 0 25 0C4.83711 0 0 4.83711 0 25ZM10.0813 30.1934L17.923 12.3727C19.2461 9.36875 21.7922 7.73945 25 7.73945C28.2078 7.73945 30.7535 9.36836 32.0773 12.3723L39.9188 30.1934C40.275 31.059 40.5805 32.1793 40.5805 33.1465C40.5805 37.5762 37.4746 40.682 33.0445 40.682C31.5359 40.682 30.3375 40.2973 29.1246 39.9074C27.8816 39.5082 26.6234 39.1039 25 39.1039C23.3953 39.1039 22.1063 39.5117 20.8387 39.9129C19.6129 40.3008 18.407 40.682 16.9555 40.682C12.5258 40.682 9.41953 37.5766 9.41953 33.1469C9.41953 32.1793 9.725 31.059 10.0813 30.1934ZM25 15.4785L17.2605 32.9941C19.552 31.9246 22.1996 31.4156 25 31.4156C27.6988 31.4156 30.448 31.9246 32.6375 32.9937L25 15.4785Z" fill="#5A45FF"/>
</g>
<defs>
<clipPath id="clip0_443_12">
<rect width="50" height="50" fill="white"/>
</clipPath>
</defs>
</svg>
