<svg width="50" height="50" viewBox="0 0 50 50" fill="none" xmlns="http://www.w3.org/2000/svg">
<g clip-path="url(#clip0_443_105)">
<mask id="mask0_443_105" style="mask-type:luminance" maskUnits="userSpaceOnUse" x="0" y="0" width="50" height="50">
<path d="M50 0H0V50H50V0Z" fill="white"/>
</mask>
<g mask="url(#mask0_443_105)">
<path d="M14.0905 21.0242C14.0905 21.6286 14.157 22.1186 14.2734 22.478C14.4064 22.8374 14.5727 23.2294 14.8056 23.6541C14.8887 23.7848 14.922 23.9155 14.922 24.0298C14.922 24.1932 14.8222 24.3565 14.606 24.5199L13.5583 25.206C13.4087 25.304 13.259 25.353 13.126 25.353C12.9597 25.353 12.7934 25.2713 12.6271 25.1243C12.3943 24.8792 12.1947 24.6179 12.0284 24.3565C11.8622 24.0789 11.6958 23.7685 11.5129 23.3928C10.2158 24.8956 8.58613 25.647 6.62388 25.647C5.22698 25.647 4.1128 25.255 3.29797 24.4709C2.48312 23.6868 2.06738 22.6414 2.06738 21.3346C2.06738 19.9461 2.56627 18.819 3.58066 17.9695C4.59505 17.1201 5.94205 16.6954 7.65488 16.6954C8.2203 16.6954 8.8023 16.7444 9.41763 16.8261C10.0329 16.9078 10.6648 17.0385 11.33 17.1855V15.993C11.33 14.7515 11.0639 13.8858 10.5484 13.3794C10.0163 12.873 9.11827 12.628 7.8378 12.628C7.25577 12.628 6.65713 12.6933 6.04184 12.8404C5.42655 12.9874 4.82788 13.167 4.24584 13.3957C3.97977 13.5101 3.78023 13.5754 3.6638 13.6081C3.5474 13.6407 3.46426 13.6571 3.39774 13.6571C3.16493 13.6571 3.04852 13.4937 3.04852 13.1507V12.3503C3.04852 12.0889 3.08178 11.8929 3.16493 11.7786C3.24808 11.6642 3.39774 11.5499 3.63055 11.4355C4.21259 11.1415 4.91102 10.8965 5.72588 10.7005C6.5407 10.4881 7.40545 10.3901 8.32005 10.3901C10.299 10.3901 11.7457 10.8311 12.677 11.7132C13.5916 12.5953 14.0572 13.9348 14.0572 15.7316V21.0242H14.0905ZM7.33891 23.5071C7.8877 23.5071 8.45309 23.4091 9.05177 23.2131C9.65041 23.0171 10.1826 22.6577 10.6316 22.1676C10.8976 21.8573 11.0972 21.5142 11.197 21.1222C11.2967 20.7302 11.3633 20.2565 11.3633 19.7011V19.015C10.881 18.9006 10.3655 18.8026 9.83334 18.7373C9.3012 18.672 8.7857 18.6393 8.27016 18.6393C7.15602 18.6393 6.34116 18.8516 5.79238 19.2927C5.24363 19.7337 4.97755 20.3545 4.97755 21.1712C4.97755 21.939 5.17709 22.5107 5.59284 22.9027C5.99195 23.3111 6.57398 23.5071 7.33891 23.5071ZM20.6924 25.2713C20.3931 25.2713 20.1935 25.2223 20.0605 25.108C19.9274 25.0099 19.811 24.7812 19.7113 24.4709L15.8033 11.8439C15.7036 11.5172 15.6537 11.3049 15.6537 11.1905C15.6537 10.9291 15.7867 10.7821 16.0528 10.7821H17.6824C17.9984 10.7821 18.2146 10.8311 18.331 10.9455C18.4641 11.0435 18.5638 11.2722 18.6636 11.5826L21.4573 22.3963L24.0516 11.5826C24.1347 11.2559 24.2345 11.0435 24.3675 10.9455C24.5006 10.8475 24.7333 10.7821 25.0327 10.7821H26.3631C26.679 10.7821 26.8952 10.8311 27.0282 10.9455C27.1613 11.0435 27.2777 11.2722 27.3442 11.5826L29.9716 22.527L32.8486 11.5826C32.9483 11.2559 33.0647 11.0435 33.1811 10.9455C33.3142 10.8475 33.5303 10.7821 33.8297 10.7821H35.3762C35.6423 10.7821 35.7921 10.9128 35.7921 11.1905C35.7921 11.2722 35.7753 11.3539 35.7589 11.4519C35.7421 11.5499 35.7088 11.6806 35.6423 11.8602L31.6346 24.4872C31.5348 24.8139 31.4184 25.0263 31.2854 25.1243C31.1523 25.2223 30.9362 25.2876 30.6534 25.2876H29.2233C28.9073 25.2876 28.6912 25.2386 28.5581 25.1243C28.4251 25.0099 28.3087 24.7976 28.2422 24.4709L25.6646 13.9348L23.1037 24.4545C23.0205 24.7812 22.9207 24.9936 22.7877 25.108C22.6547 25.2223 22.4219 25.2713 22.1225 25.2713H20.6924ZM42.0614 25.7123C41.1964 25.7123 40.3317 25.6143 39.5003 25.4183C38.6689 25.2223 38.0203 25.0099 37.5878 24.7649C37.3217 24.6179 37.1389 24.4545 37.0724 24.3075C37.006 24.1605 36.9728 23.9972 36.9728 23.8501V23.0171C36.9728 22.674 37.1057 22.5107 37.3553 22.5107C37.4549 22.5107 37.5546 22.527 37.6546 22.5597C37.7542 22.5924 37.9039 22.6577 38.0703 22.723C38.6357 22.9681 39.251 23.1641 39.8996 23.2947C40.5646 23.4254 41.2132 23.4908 41.8785 23.4908C42.926 23.4908 43.741 23.3111 44.3064 22.9517C44.8717 22.5924 45.171 22.0696 45.171 21.3999C45.171 20.9425 45.0214 20.5668 44.7221 20.2565C44.4228 19.9461 43.8571 19.6684 43.0424 19.407L40.631 18.672C39.4171 18.2962 38.5192 17.7409 37.9703 17.0058C37.4217 16.287 37.1389 15.4866 37.1389 14.6372C37.1389 13.9511 37.2885 13.3467 37.5878 12.824C37.8874 12.3013 38.2864 11.8439 38.7853 11.4845C39.2842 11.1089 39.8496 10.8311 40.5146 10.6351C41.1799 10.4391 41.8785 10.3574 42.6099 10.3574C42.976 10.3574 43.3585 10.3737 43.7242 10.4228C44.1067 10.4718 44.456 10.5371 44.8053 10.6025C45.1378 10.6841 45.4535 10.7658 45.7532 10.8638C46.0524 10.9618 46.2853 11.0598 46.4514 11.1579C46.6842 11.2885 46.8507 11.4192 46.9503 11.5662C47.0499 11.6969 47.1 11.8766 47.1 12.1053V12.873C47.1 13.2161 46.9671 13.3957 46.7175 13.3957C46.5846 13.3957 46.3682 13.3304 46.0857 13.1997C45.1378 12.775 44.0735 12.5626 42.8928 12.5626C41.9449 12.5626 41.1964 12.7097 40.681 13.02C40.1657 13.3304 39.8996 13.8041 39.8996 14.4739C39.8996 14.9312 40.0657 15.3233 40.3982 15.6336C40.731 15.944 41.3464 16.2544 42.2274 16.5321L44.5889 17.2671C45.7864 17.6429 46.651 18.1656 47.1664 18.8353C47.6821 19.505 47.9314 20.2728 47.9314 21.1222C47.9314 21.8246 47.7817 22.4617 47.4992 23.0171C47.1999 23.5725 46.8007 24.0625 46.2853 24.4545C45.7696 24.8629 45.1542 25.157 44.4392 25.3693C43.691 25.598 42.9092 25.7123 42.0614 25.7123Z" fill="white"/>
<path fill-rule="evenodd" clip-rule="evenodd" d="M45.2043 33.652C39.7332 37.6215 31.7842 39.7286 24.9495 39.7286C15.371 39.7286 6.74025 36.2493 0.221508 30.4667C-0.294006 30.0093 0.171619 29.3886 0.786911 29.7479C7.83782 33.7664 16.535 36.2004 25.5316 36.2004C31.6013 36.2004 38.2696 34.9588 44.4061 32.4106C45.3207 32.0022 46.1021 32.9986 45.2043 33.652Z" fill="#FF9900"/>
<path fill-rule="evenodd" clip-rule="evenodd" d="M47.4825 31.1032C46.7839 30.2211 42.8596 30.6785 41.08 30.8908C40.5478 30.9561 40.465 30.4988 40.9471 30.1557C44.0735 27.9995 49.2118 28.6202 49.8107 29.339C50.4093 30.0741 49.6443 35.1216 46.7175 37.539C46.2685 37.9147 45.836 37.7187 46.0357 37.2287C46.701 35.6116 48.181 31.9689 47.4825 31.1032Z" fill="#FF9900"/>
</g>
</g>
<defs>
<clipPath id="clip0_443_105">
<rect width="50" height="50" fill="white"/>
</clipPath>
</defs>
</svg>
