<svg width="50" height="50" viewBox="0 0 50 50" fill="none" xmlns="http://www.w3.org/2000/svg">
<path d="M23.1313 42.3745C29.5551 41.2398 34.8608 40.3006 34.9218 40.2877L35.0325 40.2641L28.9678 33.0504C25.6322 29.0828 22.9031 25.8212 22.9031 25.8024C22.9031 25.7668 29.1654 8.52166 29.2006 8.46031C29.2124 8.43981 33.4741 15.7976 39.5314 26.296C45.2021 36.1248 49.8775 44.2288 49.9211 44.3045L50 44.4427L30.7257 44.4402L11.4515 44.4377L23.1313 42.3745ZM0 40.1745C0 40.1645 2.85768 35.2038 6.35039 29.1508L12.7008 18.1455L20.1014 11.9349C24.1718 8.51906 27.513 5.72009 27.5264 5.71498C27.5398 5.70988 27.4863 5.84463 27.4074 6.01445C27.3286 6.18427 23.7124 13.9407 19.3714 23.2509L11.4787 40.1788L5.73932 40.1859C2.5827 40.1898 0 40.1848 0 40.1745Z" fill="#0089D6"/>
</svg>
