<svg width="50" height="50" viewBox="0 0 50 50" fill="none" xmlns="http://www.w3.org/2000/svg">
<g clip-path="url(#clip0_443_67)">
<path d="M5.51571 10.2275C5.42139 7.50786 7.53204 5 10.385 5H39.6186C42.4714 5 44.5821 7.50786 44.4879 10.2275C44.3971 12.8399 44.515 16.224 45.3632 18.9833C46.2143 21.7512 47.6496 23.5007 50 23.7255V26.2745C47.6496 26.4993 46.2143 28.2488 45.3632 31.0167C44.515 33.776 44.3971 37.16 44.4879 39.7725C44.5821 42.4921 42.4714 45 39.6186 45H10.385C7.53204 45 5.42139 42.4921 5.51582 39.7725C5.60636 37.16 5.48868 33.776 4.64025 31.0167C3.78925 28.2488 2.35059 26.4993 0 26.2745V23.7255C2.35049 23.5007 3.78925 21.7512 4.64025 18.9833C5.48868 16.224 5.60636 12.8399 5.51571 10.2275Z" fill="url(#paint0_linear_443_67)"/>
<g filter="url(#filter0_d_443_67)">
<path d="M26.0842 35.6339C30.703 35.6339 33.4863 33.3635 33.4863 29.6187C33.4863 26.788 31.5004 24.7387 28.5515 24.4143V24.2963C30.718 23.9425 32.4182 21.9227 32.4182 19.667C32.4182 16.453 29.8906 14.3594 26.039 14.3594H17.373V35.6339H26.0842ZM20.7432 17.0574H25.2267C27.6639 17.0574 29.048 18.1484 29.048 20.124C29.048 22.2323 27.4383 23.4117 24.5195 23.4117H20.7432V17.0574ZM20.7432 32.9359V25.9329H25.1965C28.386 25.9329 30.041 27.1123 30.041 29.4123C30.041 31.7122 28.4312 32.9359 25.3921 32.9359H20.7432Z" fill="url(#paint1_linear_443_67)"/>
</g>
</g>
<defs>
<filter id="filter0_d_443_67" x="1.37305" y="2.35938" width="48.1133" height="53.2754" filterUnits="userSpaceOnUse" color-interpolation-filters="sRGB">
<feFlood flood-opacity="0" result="BackgroundImageFix"/>
<feColorMatrix in="SourceAlpha" type="matrix" values="0 0 0 0 0 0 0 0 0 0 0 0 0 0 0 0 0 0 127 0" result="hardAlpha"/>
<feOffset dy="4"/>
<feGaussianBlur stdDeviation="8"/>
<feColorMatrix type="matrix" values="0 0 0 0 0 0 0 0 0 0 0 0 0 0 0 0 0 0 0.15 0"/>
<feBlend mode="normal" in2="BackgroundImageFix" result="effect1_dropShadow_443_67"/>
<feBlend mode="normal" in="SourceGraphic" in2="effect1_dropShadow_443_67" result="shape"/>
</filter>
<linearGradient id="paint0_linear_443_67" x1="7.42961" y1="6.05864" x2="51.2532" y2="40.71" gradientUnits="userSpaceOnUse">
<stop stop-color="#9013FE"/>
<stop offset="1" stop-color="#6610F2"/>
</linearGradient>
<linearGradient id="paint1_linear_443_67" x1="18.8972" y1="15.7597" x2="28.7201" y2="32.3076" gradientUnits="userSpaceOnUse">
<stop stop-color="white"/>
<stop offset="1" stop-color="#F1E5FC"/>
</linearGradient>
<clipPath id="clip0_443_67">
<rect width="50" height="50" fill="white"/>
</clipPath>
</defs>
</svg>
