<svg width="50" height="50" viewBox="0 0 50 50" fill="none" xmlns="http://www.w3.org/2000/svg">
<path d="M47.0563 0L43.0398 44.9948L24.9855 50L6.98098 45.0018L2.96875 0H47.0563Z" fill="#264DE4"/>
<path d="M25.0127 46.1743L39.6014 42.1298L43.0338 3.67969H25.0127V46.1743Z" fill="#2965F1"/>
<path d="M25.0123 20.3691H12.1665L12.6612 25.8884H25.0123V20.3691Z" fill="#EBEBEB"/>
<path d="M25.0126 9.19922H24.9935H11.1729L11.6746 14.7186H25.0126V9.19922Z" fill="#EBEBEB"/>
<path d="M12.9082 28.6484L13.6815 37.3145L24.9873 40.4531L25.0127 40.446V34.7037L24.9885 34.7101L18.8417 33.0503L18.4487 28.6484H15.4618H12.9082Z" fill="#EBEBEB"/>
<path d="M31.79 25.8896L31.1494 33.0477L24.9937 34.7092V40.4513L36.3085 37.3154L36.3915 36.383L37.6885 21.8525L37.8232 20.3704L38.8196 9.19922H24.9937V14.7186H32.7709L32.2687 20.3704H24.9937V25.8896H31.79Z" fill="white"/>
</svg>
