<svg width="50" height="50" viewBox="0 0 50 50" fill="none" xmlns="http://www.w3.org/2000/svg">
<path d="M49.5239 20.5062C49.3855 20.3928 48.1321 19.4448 45.4422 19.4448C44.7464 19.4448 44.0261 19.5137 43.3302 19.6312C42.8215 16.0986 39.8752 14.3891 39.7572 14.3L39.0369 13.8827L38.573 14.5511C37.9951 15.4505 37.5516 16.4673 37.2993 17.5044C36.8109 19.5137 37.1121 21.4055 38.1335 23.0219C36.9045 23.7146 34.9105 23.8767 34.4914 23.901H1.55737C0.698717 23.901 0.00284202 24.5937 0.00284202 25.4485C-0.0419218 28.3126 0.442342 31.1726 1.43935 33.8746C2.57473 36.8278 4.26762 39.0235 6.44884 40.3604C8.90678 41.8592 12.9192 42.714 17.4404 42.714C19.4792 42.714 21.522 42.5277 23.5405 42.159C26.3484 41.6526 29.0383 40.6804 31.5166 39.2747C33.5595 38.0958 35.3907 36.5969 36.9452 34.8428C39.566 31.9099 41.1205 28.6326 42.2559 25.7239C42.4186 25.7239 42.557 25.7239 42.7198 25.7239C45.5724 25.7239 47.3345 24.5937 48.3071 23.6214C48.9582 23.0219 49.4425 22.2805 49.7925 21.4501L50 20.8505L49.5239 20.5062ZM29.14 22.953H33.5472C33.7548 22.953 33.942 22.791 33.942 22.5601V18.6346C33.942 18.428 33.7792 18.2417 33.5472 18.2417H29.14C28.9325 18.2417 28.7453 18.4037 28.7453 18.6346V22.5601C28.7697 22.791 28.9325 22.953 29.14 22.953ZM22.9952 11.7114H27.4024C27.6099 11.7114 27.7971 11.5493 27.7971 11.3184V7.39295C27.7971 7.18635 27.6099 7 27.4024 7H22.9952C22.7876 7 22.6005 7.16204 22.6005 7.39295V11.3184C22.6005 11.525 22.7836 11.7114 22.9952 11.7114ZM22.9952 17.3423H27.4024C27.6099 17.3423 27.7971 17.156 27.7971 16.9494V13.0239C27.7971 12.8173 27.6099 12.631 27.4024 12.631H22.9952C22.7876 12.631 22.6005 12.793 22.6005 13.0239V16.9494C22.6005 17.16 22.7836 17.3423 22.9952 17.3423ZM16.8951 17.3423H21.3023C21.5098 17.3423 21.697 17.156 21.697 16.9494V13.0239C21.697 12.8173 21.5343 12.631 21.3023 12.631H16.8951C16.6876 12.631 16.5004 12.793 16.5004 13.0239V16.9494C16.5004 17.16 16.6631 17.3423 16.8951 17.3423ZM10.7014 17.3423H15.1086C15.3162 17.3423 15.5033 17.156 15.5033 16.9494V13.0239C15.5033 12.8173 15.3406 12.631 15.1086 12.631H10.7014C10.4939 12.631 10.3067 12.793 10.3067 13.0239V16.9494C10.3311 17.16 10.4939 17.3423 10.7014 17.3423ZM22.9952 22.953H27.4024C27.6099 22.953 27.7971 22.791 27.7971 22.5601V18.6346C27.7971 18.428 27.6343 18.2417 27.4024 18.2417H22.9952C22.7876 18.2417 22.6005 18.4037 22.6005 18.6346V22.5601C22.6005 22.791 22.7836 22.953 22.9952 22.953ZM16.8951 22.953H21.3023C21.5098 22.953 21.697 22.791 21.697 22.5601V18.6346C21.697 18.428 21.5343 18.2417 21.3023 18.2417H16.8951C16.6876 18.2417 16.5004 18.4037 16.5004 18.6346V22.5601C16.5004 22.791 16.6631 22.953 16.8951 22.953ZM10.7014 22.953H15.1086C15.3162 22.953 15.5033 22.791 15.5033 22.5601V18.6346C15.5033 18.428 15.3406 18.2417 15.1086 18.2417H10.7014C10.4939 18.2417 10.3067 18.4037 10.3067 18.6346V22.5601C10.3311 22.791 10.4939 22.953 10.7014 22.953ZM4.62573 22.953H9.03293C9.24047 22.953 9.42767 22.791 9.42767 22.5601V18.6346C9.42767 18.428 9.26489 18.2417 9.03293 18.2417H4.62573C4.41819 18.2417 4.23099 18.4037 4.23099 18.6346V22.5601C4.25541 22.791 4.41819 22.953 4.62573 22.953Z" fill="#0091E2"/>
</svg>
