<svg width="50" height="50" viewBox="0 0 50 50" fill="none" xmlns="http://www.w3.org/2000/svg">
<path d="M36.3207 29.8336C37.0811 30.5367 37.7884 31.2523 38.5614 31.8898C39.6103 32.7565 40.7749 33.42 42.177 33.5231C43.052 33.5877 43.8759 33.4544 44.5166 32.7846C45.7197 31.5273 45.328 29.3294 43.7061 28.5429C42.7114 28.0606 41.6489 27.7148 40.6072 27.3315C38.9447 26.72 37.3561 25.9908 36.1186 24.67C35.5655 24.0794 35.1884 23.3825 34.9645 22.6117C34.3239 20.4054 34.2436 18.1773 34.9468 15.9804C35.7447 13.4846 37.5093 11.9711 40.0426 11.3846C42.1707 10.8929 44.2072 11.2908 46.1614 12.195C47.3457 12.7429 48.3822 13.4992 49.302 14.4242C49.4957 14.619 49.5353 14.7711 49.3989 15.0221C48.7103 16.2846 48.0395 17.5575 47.3624 18.8263C47.328 18.8898 47.2832 18.9481 47.2228 19.0408C46.9676 18.8169 46.7301 18.6002 46.4822 18.394C45.0884 17.2336 43.5489 16.4273 41.677 16.4398C40.4395 16.4481 39.5999 17.0888 39.3114 18.2429C39.0009 19.4877 39.4572 20.5898 40.5093 21.1742C41.6749 21.821 42.9499 22.1836 44.1957 22.6252C45.9864 23.2596 47.577 24.195 48.6926 25.7836C49.4364 26.8429 49.7384 28.0627 49.8655 29.3304C50.0176 30.8492 49.9582 32.3502 49.4811 33.819C48.527 36.7565 46.052 38.6502 42.9561 38.8086C40.2749 38.9461 37.9311 38.0804 35.8916 36.3877C35.1301 35.7554 34.4624 35.0106 33.7645 34.3044C33.6957 34.2346 33.6593 34.0388 33.7061 33.9617C34.5499 32.594 35.4093 31.2346 36.2666 29.8752C36.2832 29.8533 36.3145 29.8388 36.3207 29.8336Z" fill="#C0CA33"/>
<path d="M14.8687 17.1479V11.8125H0.00927734V38.4333H14.8687V33.0979H5.3749V27.9385H13.777V22.6021H5.3749V17.1479H14.8687Z" fill="#C0CA33"/>
<path d="M30.8467 11.8125H20.1457V17.0604H25.5707V30.6073C25.6592 32.774 24.48 33.2458 24.48 33.2458C22.004 34.0708 19.953 30.8052 19.953 30.8052L17.4634 35.1917C21.178 39.2896 25.2165 38.6406 25.2165 38.6406C30.8175 38.5229 30.8175 30.6073 30.8175 30.6073L30.8467 11.8125Z" fill="#C0CA33"/>
</svg>
