<svg width="50" height="50" viewBox="0 0 50 50" fill="none" xmlns="http://www.w3.org/2000/svg">
<path d="M50 38.6131C48.1814 39.0756 47.0561 38.6335 46.0468 37.1178L38.8686 27.1866L37.8311 25.8116L29.4484 37.1506C28.4906 38.5149 27.4859 39.1085 25.6984 38.6256L36.4329 24.2163L26.4391 11.2007C28.1578 10.8663 29.3453 11.0366 30.4 12.5757L37.8454 22.6304L45.3454 12.6304C46.3064 11.2663 47.3389 10.7476 49.0639 11.2507L45.1889 16.3882L39.9389 23.2241C39.3139 24.0054 39.4 24.5398 39.975 25.2944L50 38.6131ZM0.0125 23.9757L0.890625 19.657C3.28125 11.1101 13.0781 7.55852 19.8344 12.8398C23.7828 15.946 24.7641 20.3398 24.5688 25.2616H2.3125C1.97813 34.121 8.35468 39.4678 16.4844 36.7399C19.3359 35.7821 21.0156 33.5491 21.8562 30.7554C22.2828 29.3554 22.9891 29.1366 24.3047 29.5366C23.6328 33.0304 22.1172 35.9492 18.9141 37.7756C14.1281 40.5099 7.29686 39.6256 3.70311 35.8256C1.5625 33.621 0.678125 30.8273 0.28125 27.8398C0.21875 27.346 0.09375 26.8757 0 26.4023C0.00833332 25.5939 0.0125 24.7856 0.0125 23.9773V23.9757ZM2.35313 23.3819H22.4656C22.3344 16.9757 18.3453 12.4257 12.8938 12.3866C6.90939 12.3398 2.6125 16.7819 2.35313 23.3819Z" fill="white"/>
</svg>
