<svg width="50" height="50" viewBox="0 0 50 50" fill="none" xmlns="http://www.w3.org/2000/svg">
<path d="M9.0625 38.4366L9.32812 38.0663L21.8594 14.2945L21.8859 14.0429L16.3625 3.66789C16.2614 3.47817 16.1032 3.32505 15.9102 3.23018C15.7173 3.13532 15.4994 3.10352 15.2874 3.13928C15.0755 3.17505 14.8801 3.27656 14.7289 3.42947C14.5778 3.58238 14.4786 3.77893 14.4453 3.99133L9.0625 38.4366Z" fill="#FFC24A"/>
<path d="M9.21875 38.157L9.41875 37.7664L21.8203 14.2414L16.3109 3.82577C16.2201 3.64464 16.073 3.49782 15.8917 3.40731C15.7104 3.31679 15.5046 3.28747 15.3052 3.32372C15.1059 3.35997 14.9236 3.45984 14.7858 3.60838C14.6479 3.75692 14.5619 3.94612 14.5406 4.14765L9.21875 38.157Z" fill="#FFA712"/>
<path d="M25.9124 21.8903L30.0249 17.6716L25.9108 9.82628C25.8203 9.65743 25.6856 9.5163 25.5212 9.41792C25.3568 9.31954 25.1688 9.26758 24.9772 9.26758C24.7857 9.26758 24.5976 9.31954 24.4332 9.41792C24.2688 9.5163 24.1342 9.65743 24.0437 9.82628L21.8452 14.0169V14.3747L25.9124 21.8903Z" fill="#F4BD62"/>
<path d="M25.8389 21.7178L29.8373 17.6241L25.8389 9.99906C25.7734 9.83401 25.6616 9.69142 25.517 9.58847C25.3723 9.48552 25.201 9.42661 25.0236 9.41885C24.8462 9.41109 24.6704 9.4548 24.5173 9.54472C24.3642 9.63464 24.2404 9.76692 24.1607 9.92562L21.9514 14.1897L21.8857 14.4069L25.8389 21.7178Z" fill="#FFA50E"/>
<path d="M9.06543 38.4395L9.18574 38.3176L9.62168 38.141L25.6529 22.1691L25.8561 21.616L21.8576 13.9941L9.06543 38.4395Z" fill="#F6820C"/>
<path d="M26.425 46.4945L40.9375 38.4023L36.7906 12.8851C36.7609 12.7052 36.6822 12.537 36.5631 12.3989C36.4441 12.2609 36.2893 12.1583 36.1157 12.1024C35.9421 12.0465 35.7566 12.0396 35.5793 12.0823C35.4021 12.125 35.24 12.2157 35.1109 12.3445L9.0625 38.4382L23.4891 46.4929C23.9376 46.7432 24.4426 46.8746 24.9562 46.8746C25.4699 46.8746 25.9749 46.7432 26.4234 46.4929" fill="#FDE068"/>
<path d="M40.8047 38.3344L36.6922 13.0094C36.6849 12.8373 36.6268 12.6713 36.5251 12.5323C36.4235 12.3933 36.2829 12.2876 36.1211 12.2286C35.9593 12.1695 35.7837 12.1598 35.6164 12.2006C35.4491 12.2414 35.2976 12.3309 35.1813 12.4578L9.21875 38.3891L23.4859 46.3578C23.9309 46.6061 24.4319 46.7364 24.9414 46.7364C25.4509 46.7364 25.9519 46.6061 26.3969 46.3578L40.8047 38.3344Z" fill="#FCCA3F"/>
<path d="M26.425 46.2508C25.9765 46.5011 25.4714 46.6324 24.9578 46.6324C24.4442 46.6324 23.9391 46.5011 23.4906 46.2508L9.18125 38.3164L9.0625 38.4383L23.4891 46.493C23.9376 46.7432 24.4426 46.8746 24.9562 46.8746C25.4699 46.8746 25.9749 46.7432 26.4234 46.493L40.9375 38.4023L40.9016 38.1836L26.425 46.2508Z" fill="#EEAB37"/>
</svg>
