<svg width="50" height="50" viewBox="0 0 50 50" fill="none" xmlns="http://www.w3.org/2000/svg">
<path fill-rule="evenodd" clip-rule="evenodd" d="M47 0L42.9919 44.9951L24.9736 50L7.00406 45.0033L3 0H47Z" fill="#E44D26"/>
<path fill-rule="evenodd" clip-rule="evenodd" d="M24.998 46.1745L39.5605 42.1299L42.9838 3.67773H24.998V46.1745Z" fill="#F16529"/>
<path fill-rule="evenodd" clip-rule="evenodd" d="M17.2093 14.7168H25.0022V9.19922H11.187L11.317 10.6803L12.6692 25.8903H24.9941V20.3687H17.7129L17.2093 14.7168ZM18.4479 28.6491H12.921L13.6926 37.3161L24.9779 40.4533L25.0022 40.4451V34.7038L24.9779 34.7119L18.8418 33.0518L18.4479 28.6491Z" fill="#EBEBEB"/>
<path fill-rule="evenodd" clip-rule="evenodd" d="M24.9819 25.8905H31.7637L31.1261 33.0479L24.9819 34.708V40.4494L36.2753 37.3122L36.3566 36.3804L37.652 21.8499L37.786 20.3688H24.9819V25.8905ZM24.9819 14.7048V14.717H38.2855L38.3951 13.4759L38.6469 10.6764L38.7769 9.19531H24.9819V14.7048Z" fill="white"/>
</svg>
