<svg width="50" height="50" viewBox="0 0 50 50" fill="none" xmlns="http://www.w3.org/2000/svg">
<g clip-path="url(#clip0_443_85)">
<mask id="mask0_443_85" style="mask-type:luminance" maskUnits="userSpaceOnUse" x="0" y="0" width="50" height="50">
<path d="M50 0H0V50H50V0Z" fill="white"/>
</mask>
<g mask="url(#mask0_443_85)">
<path d="M50 0H0V50H50V0Z" fill="#FDD738"/>
<path d="M33.5873 39.0626C34.5944 40.7069 35.9046 41.9158 38.2221 41.9158C40.1689 41.9158 41.4128 40.9426 41.4128 39.5983C41.4128 37.9872 40.1349 37.4165 37.9921 36.479L36.8174 35.9751C33.4269 34.5307 31.1746 32.7212 31.1746 28.8958C31.1746 25.372 33.8595 22.6895 38.0556 22.6895C41.0428 22.6895 43.1903 23.7292 44.7381 26.4514L41.0792 28.8006C40.2739 27.3561 39.4046 26.7871 38.0556 26.7871C36.6792 26.7871 35.8071 27.6601 35.8071 28.8006C35.8071 30.2101 36.6803 30.7807 38.696 31.6537L39.8706 32.1569C43.8628 33.8688 46.1167 35.6141 46.1167 39.538C46.1167 43.768 42.7935 46.0854 38.331 46.0854C33.9674 46.0854 31.1484 44.0062 29.769 41.2808L33.5873 39.0626ZM16.9896 39.4697C17.7278 40.779 18.3992 41.8862 20.0135 41.8862C21.5571 41.8862 22.5309 41.2822 22.5309 38.934V22.9577H27.2293V38.9972C27.2293 43.8626 24.3769 46.0769 20.2135 46.0769C16.4515 46.0769 14.273 44.1301 13.165 41.7851L16.9896 39.4697Z" fill="white"/>
</g>
</g>
<defs>
<clipPath id="clip0_443_85">
<rect width="50" height="50" fill="white"/>
</clipPath>
</defs>
</svg>
