<svg width="50" height="50" viewBox="0 0 50 50" fill="none" xmlns="http://www.w3.org/2000/svg">
<g clip-path="url(#clip0_443_16)">
<mask id="mask0_443_16" style="mask-type:luminance" maskUnits="userSpaceOnUse" x="0" y="0" width="50" height="50">
<path d="M49.8775 0H0.85791V50H49.8775V0Z" fill="white"/>
</mask>
<g mask="url(#mask0_443_16)">
<path d="M25.3677 50C38.9041 50 49.8775 38.8071 49.8775 25C49.8775 11.1929 38.9041 0 25.3677 0C11.8313 0 0.85791 11.1929 0.85791 25C0.85791 38.8071 11.8313 50 25.3677 50Z" fill="#58AA50"/>
<path d="M31.9191 21.9434C30.3709 14.9741 26.7121 12.6826 26.3182 11.8071C25.8873 11.1895 25.4507 10.0908 25.4507 10.0908C25.4436 10.0723 25.4321 10.0396 25.4187 10.0078C25.3742 10.6255 25.3512 10.8638 24.7787 11.4868C23.8921 12.1938 19.3434 16.0869 18.9734 24.0049C18.6282 31.3896 24.2033 35.79 24.9572 36.3511L25.0429 36.4131V36.4077C25.0477 36.4448 25.2822 38.1655 25.4469 39.9888H26.0377C26.1762 38.7 26.384 37.4199 26.6599 36.1543L26.7079 36.1226C27.0451 35.8759 27.3666 35.6076 27.6705 35.3193L27.7049 35.2876C29.3077 33.7773 32.1891 30.2842 32.1608 24.7148C32.1548 23.7858 32.074 22.8589 31.9191 21.9434ZM25.3843 32.1816C25.3843 32.1816 25.3843 21.8242 25.7193 21.8262C25.9807 21.8262 26.3192 35.186 26.3192 35.186C25.8539 35.1289 25.3843 32.9873 25.3843 32.1816Z" fill="white"/>
</g>
</g>
<defs>
<clipPath id="clip0_443_16">
<rect width="50" height="50" fill="white"/>
</clipPath>
</defs>
</svg>
