<svg width="50" height="50" viewBox="0 0 50 50" fill="none" xmlns="http://www.w3.org/2000/svg">
<path d="M18.751 31.2441V36.4587L22.9114 36.4535V31.2494L20.8343 33.3379L18.751 31.2441Z" fill="#B71C1C"/>
<path d="M48.5271 22.3336C48.3428 22.1034 47.6521 21.9648 47.6521 21.9648L46.823 23.6232L46.9146 21.7804C46.9146 21.7804 41.8928 19.7534 37.8855 18.7857C33.8782 17.8179 31.0313 17.4409 29.5021 17.4044C28.3959 17.3773 26.2761 17.4961 26.2761 17.4961L28.073 19.2002C28.073 19.2002 25.8157 18.2784 24.9865 17.9565C24.1574 17.6346 22.8678 17.6336 22.2219 17.5877C21.5771 17.5419 21.024 17.818 21.024 17.818C21.024 17.818 20.4251 18.2784 21.8074 21.3648C22.9407 23.8961 25.6813 25.495 26.6324 25.9898C20.4688 24.6523 19.7803 18.6929 19.7803 18.6929C19.7803 18.6929 16.0271 18.6544 10.6584 20.5357C4.59173 22.6617 0.983398 26.7554 0.983398 26.7554C0.983398 26.7554 5.77506 25.1429 9.82923 26.2482C13.8834 27.3534 15.5553 30.194 15.5553 30.194L15.6667 27.0617H18.7251L21.0699 29.8877L22.9011 27.0992H25.9959C25.9959 27.0992 26.0115 27.0992 26.0334 27.0982V33.3263C26.0334 33.3263 28.1313 31.5919 29.5459 30.9013C31.4344 29.9794 35.8115 30.2565 35.8115 30.2565C35.8115 30.2565 35.7417 29.7669 35.4834 29.2492C35.1167 28.5159 36.0803 28.2752 36.0803 28.2752C36.0803 28.2752 44.7032 26.3867 45.6699 26.2023C46.6376 26.0179 47.3282 25.6034 47.5584 25.3732C47.7886 25.1429 48.4334 23.5304 48.5719 23.3461C48.7115 23.1627 48.7115 22.5638 48.5271 22.3336ZM22.0834 19.1544C22.3136 18.7857 23.0053 18.6471 24.0646 19.1544C25.3146 19.7523 26.8292 21.7346 26.8292 21.7346L25.5396 21.1357L26.1844 22.2877L25.0324 21.6429L26.0459 23.1169L25.3553 22.9325L26.2771 24.4523C22.2678 22.1492 21.8532 19.5232 22.0834 19.1544ZM39.498 21.4117L38.8074 21.9179C38.8074 21.9179 36.0428 22.2867 35.3063 22.2409C34.5688 22.195 34.1084 21.0888 34.1084 21.0888L32.5886 20.1669L39.498 21.4117ZM34.2917 27.8617C33.7844 28.2763 34.2459 29.2898 34.2459 29.2898C33.5553 28.7836 32.7251 27.8159 33.4626 27.2627C34.2001 26.7096 39.5896 26.019 39.5896 26.019C39.5896 26.019 34.798 27.4471 34.2917 27.8617Z" fill="#B71C1C"/>
</svg>
