<svg width="50" height="50" viewBox="0 0 50 50" fill="none" xmlns="http://www.w3.org/2000/svg">
<path d="M21.5822 1.62014C21.4533 1.66311 20.7619 1.88577 20.0354 2.12405C16.1291 3.40139 13.3635 4.88186 12.676 6.05374C12.4143 6.50296 12.3635 6.86624 12.5197 7.22952C12.6916 7.63968 13.008 7.94827 13.8752 8.56155C14.2815 8.84671 14.9729 9.44436 15.4221 9.89358C17.5705 12.0381 18.6135 14.667 18.4963 17.6397C18.3635 20.9834 16.7971 24.3272 13.7971 27.6748C12.7502 28.8428 11.676 29.8155 9.61348 31.4678C7.89473 32.8428 6.96114 33.7334 6.32442 34.5967C4.3752 37.253 4.89473 39.6201 7.87129 41.5967C10.4963 43.3428 15.1213 44.7959 20.5705 45.585C22.3986 45.8506 24.465 46.0186 24.9611 45.9444L25.3088 45.8936L25.8557 44.9092C28.6213 39.9287 30.0197 35.2334 30.1877 30.3741C30.2619 28.2061 29.9885 25.6397 29.5236 24.1397C29.4377 23.8701 29.3752 23.6397 29.3869 23.6319C29.3947 23.6241 30.1682 23.3936 31.1057 23.1123C36.0314 21.6436 40.7971 20.4873 44.7346 19.8037C45.5002 19.6709 46.1564 19.5342 46.1916 19.499C46.4025 19.292 45.7893 18.335 44.7932 17.3076C41.1096 13.5069 34.6018 10.6123 26.965 9.38186C25.4924 9.14358 25.3127 9.05764 24.7658 8.33499C23.8986 7.18655 23.0822 5.22171 21.969 1.62796C21.9338 1.51858 21.8986 1.51858 21.5822 1.62014ZM22.09 2.97171C22.5197 4.13968 22.7815 5.05764 22.7815 5.38186V5.63577L22.4182 5.5928C20.4494 5.36624 17.3088 4.87796 16.6408 4.69827C16.469 4.65139 16.3713 4.58499 16.4025 4.53421C16.4533 4.45218 17.1213 4.13186 19.1057 3.22952C20.9572 2.38968 21.6604 2.07718 21.715 2.07327C21.7385 2.07327 21.9065 2.47561 22.09 2.97171ZM17.926 5.43655C20.3283 5.94046 22.0783 6.25686 22.465 6.25686C22.84 6.25686 22.7971 6.28811 21.0315 7.36624C19.6682 8.19436 19.5119 8.27249 19.1682 8.27249H18.7932L17.7854 7.24905C16.5627 6.01077 15.7346 5.10452 15.7346 5.00296C15.7346 4.95999 15.758 4.94827 15.7932 4.9678C15.8244 4.98343 16.7893 5.19827 17.926 5.43655ZM16.1525 6.57327C16.7424 7.26077 17.1994 7.83889 17.176 7.86624C17.1252 7.91702 15.4416 7.49905 14.4104 7.18264C13.5119 6.9053 13.4025 6.81155 13.6408 6.50686C13.7971 6.30374 14.9572 5.33499 15.0432 5.33108C15.0666 5.32718 15.5627 5.88186 16.1525 6.57327ZM23.8166 7.99905C24.051 8.55764 24.2307 9.01077 24.2229 9.01858C24.2111 9.02639 21.0549 8.53811 20.7775 8.48343C20.719 8.47171 21.2541 8.10843 21.9729 7.67093C22.6916 7.23343 23.3049 6.90139 23.3361 6.93655C23.3674 6.96389 23.5822 7.44046 23.8166 7.99905ZM16.9338 9.05764C16.9963 9.12014 17.7502 11.542 17.715 11.5733C17.7033 11.585 17.344 11.1709 16.9182 10.6436C16.4885 10.1162 15.844 9.37796 15.4729 8.99124L14.8049 8.29202L15.8479 8.65139C16.4182 8.85061 16.9104 9.03421 16.9338 9.05764ZM19.9494 9.38186C21.258 9.56936 22.344 9.73733 22.3635 9.75686C22.3791 9.77639 21.59 10.3897 20.6057 11.1241C19.6213 11.8545 18.8088 12.4444 18.7971 12.4326C18.7854 12.4209 18.6877 12.1162 18.5783 11.753C18.469 11.3897 18.1877 10.6358 17.9572 10.0694C17.7268 9.50296 17.5471 9.04202 17.5549 9.04202C17.5627 9.04202 18.6408 9.19827 19.9494 9.38186ZM23.2385 10.4287C23.5275 11.1045 23.6408 11.753 23.6877 13.0459C23.7111 13.7412 23.715 14.3076 23.6916 14.3076C23.6682 14.3076 23.2541 14.1631 22.7736 13.9912C21.8127 13.6436 19.9299 13.0225 19.7072 12.9795C19.6096 12.96 20.0627 12.5264 21.2541 11.4991C22.1838 10.6983 22.9729 10.0459 23.008 10.0459C23.0471 10.0498 23.1486 10.2217 23.2385 10.4287ZM26.6135 10.5928C28.0627 10.8897 29.3283 11.1553 29.4299 11.1787C29.5744 11.2139 29.2268 11.4326 27.6955 12.2725C26.6408 12.8506 25.4455 13.5069 25.0393 13.7373C24.6291 13.9678 24.2932 14.1436 24.2854 14.1358C24.2775 14.128 24.3205 13.9131 24.3791 13.6553C24.5979 12.7178 24.4611 11.5459 24.0236 10.6123C23.8947 10.3428 23.7893 10.1045 23.7893 10.085C23.7893 10.0186 24.051 10.0655 26.6135 10.5928ZM30.5627 12.3623C30.4885 12.6905 30.3283 13.2491 30.1994 13.6123C29.9221 14.4092 28.9104 16.4756 28.7736 16.5303C28.719 16.5537 28.2424 16.3311 27.7229 16.042C27.2033 15.753 26.4494 15.3701 26.0549 15.1944L25.3361 14.8741L27.9885 13.1748C30.1877 11.7647 30.6447 11.4991 30.6682 11.6241C30.6838 11.7022 30.6369 12.0342 30.5627 12.3623ZM32.5002 11.7569C35.2502 12.5459 38.1525 13.6123 37.9846 13.7725C37.9494 13.8037 37.59 13.9248 37.1877 14.0381C35.1135 14.628 32.2268 15.6241 30.8752 16.2178C30.4572 16.4014 30.094 16.5381 30.0744 16.5186C30.0549 16.4991 30.219 15.8897 30.4416 15.1709C30.8752 13.753 31.3791 11.8389 31.3791 11.5928C31.3791 11.4834 31.4182 11.4483 31.5158 11.4756C31.5861 11.4951 32.0275 11.6201 32.5002 11.7569ZM20.676 14.6084C21.3049 14.8155 22.0354 15.0928 22.3049 15.2295C22.7932 15.4756 22.7971 15.4795 22.6565 15.6319C22.4065 15.9092 19.676 18.4522 19.5979 18.4795C19.5588 18.4951 19.5275 18.1084 19.5275 17.5498C19.5236 16.5811 19.4143 14.835 19.3322 14.4444C19.2697 14.1592 19.3205 14.1631 20.676 14.6084ZM38.1369 15.1123C37.5354 16.1045 36.5471 17.5186 35.8322 18.4092C35.1018 19.3233 33.5588 21.042 33.469 21.042C33.4338 21.042 33.2111 20.7647 32.9729 20.4209C32.094 19.167 31.0744 18.0811 30.1799 17.4483C30.094 17.3897 30.0432 17.3233 30.0627 17.3037C30.0822 17.2842 31.551 16.7451 33.3166 16.1045C36.8947 14.8076 38.469 14.2803 38.5666 14.3506C38.5744 14.3623 38.383 14.7022 38.1369 15.1123ZM40.3752 14.9444C42.844 16.667 44.5236 18.0615 45.133 18.8936C45.2854 19.1045 45.3986 19.2842 45.383 19.2959C45.3674 19.3076 44.5744 19.3975 43.6135 19.4912C39.7815 19.8701 37.051 20.253 35.6057 20.6201C35.219 20.7178 34.8947 20.792 34.8908 20.7881C34.883 20.7803 35.1369 20.4678 35.4611 20.0811C37.133 18.0772 38.6408 15.9912 39.2033 14.9092C39.3518 14.624 39.4963 14.3897 39.5275 14.3897C39.5549 14.3858 39.9338 14.6358 40.3752 14.9444ZM26.5354 17.0811C27.008 17.335 27.3713 17.5694 27.3518 17.6084C27.3166 17.6787 23.1486 19.96 23.1135 19.9287C23.1057 19.9209 23.3205 19.2373 23.594 18.4014C23.8674 17.5655 24.133 16.6592 24.1838 16.3819L24.2775 15.874L24.9807 16.249C25.3713 16.4561 26.0627 16.8272 26.5354 17.0811ZM23.0471 17.2139C22.6447 18.6084 21.8283 20.4053 21.4572 20.7178C21.3713 20.7881 21.2033 20.6905 20.6525 20.2451C20.2658 19.9326 19.8713 19.6241 19.7658 19.5537C19.6643 19.4834 19.59 19.4092 19.6057 19.3897C19.8908 19.1045 23.2111 16.4287 23.2268 16.4717C23.2385 16.499 23.1565 16.835 23.0471 17.2139ZM30.5939 19.6397C31.2229 20.0576 32.6135 21.3037 32.5393 21.3819C32.5197 21.4014 31.1057 21.8623 29.4025 22.3975C27.6994 22.9366 25.801 23.5459 25.1838 23.753C24.5627 23.96 24.0549 24.1241 24.051 24.1162C24.0432 24.1084 24.4768 23.6162 25.0119 23.0186C26.4065 21.4639 27.84 19.7959 28.3479 19.1397L28.7854 18.5733L29.3596 18.8819C29.6682 19.0537 30.2307 19.3975 30.5939 19.6397ZM27.3674 18.7451C27.3283 18.7959 26.9533 19.2725 26.5315 19.8076C26.1096 20.3389 25.1018 21.6358 24.2815 22.6866L22.7932 24.6006L22.7424 24.2764C22.6486 23.6475 22.3127 22.4248 22.1213 22.0069L21.9299 21.5889L22.8752 21.1162C23.8518 20.628 25.8869 19.5225 26.84 18.9678C27.4416 18.6162 27.4807 18.6006 27.3674 18.7451ZM19.4729 21.0576C19.8596 21.2569 20.2229 21.5147 20.2229 21.5967C20.2229 21.7217 17.7033 23.667 17.6369 23.5928C17.6213 23.5772 17.8479 23.128 18.1408 22.5928C18.4377 22.0576 18.7346 21.46 18.8049 21.2569C18.8752 21.0537 18.9846 20.8897 19.0393 20.8897C19.1018 20.8897 19.2971 20.9678 19.4729 21.0576ZM21.6213 23.4522C21.7971 23.792 21.9768 24.7491 21.883 24.835C21.844 24.8701 20.8049 25.3623 19.5666 25.9287C18.3283 26.4951 16.7229 27.2569 15.9846 27.6241C15.2502 27.9912 14.6916 28.2491 14.7463 28.2022C14.801 28.1514 15.6096 27.4756 16.5471 26.6944C18.3596 25.1866 20.426 23.3858 20.8049 22.9873L21.0315 22.7491L21.2541 22.9639C21.3791 23.0811 21.5432 23.2998 21.6213 23.4522ZM19.5861 23.4326C19.4065 23.5928 18.4377 24.4405 17.4377 25.3076C16.4377 26.1709 15.2346 27.2178 14.7658 27.628C13.8205 28.4522 13.8205 28.4522 15.0275 26.878C15.9611 25.6592 16.4494 25.2061 17.7893 24.3076C18.4416 23.8701 19.7385 23.1397 19.8635 23.1397C19.8908 23.1358 19.7658 23.2725 19.5861 23.4326ZM28.9729 24.2608C29.0236 24.5147 29.0822 25.3116 29.1096 26.0225L29.1565 27.3194L28.8557 27.1787C27.8166 26.6983 24.8986 25.0537 25.008 25.0108C25.6447 24.7569 28.7971 23.71 28.8322 23.7451C28.8596 23.7725 28.9221 24.003 28.9729 24.2608ZM26.4963 26.5811C27.7111 27.2959 28.715 27.8897 28.7307 27.9014C28.7463 27.9131 28.5861 28.0459 28.3869 28.1944C28.0002 28.4795 23.8791 30.6084 23.8244 30.5537C23.8088 30.5381 23.8635 30.1826 23.9455 29.7725C24.1135 28.9444 24.2658 26.4756 24.1916 25.6905C24.1682 25.4131 24.176 25.2178 24.215 25.2412C24.258 25.2647 25.2815 25.8662 26.4963 26.5811ZM23.1369 26.0576C23.2307 26.8272 23.1174 28.3741 22.9104 29.1787C22.6643 30.1241 22.5236 30.5186 22.4182 30.5537C22.2736 30.6045 21.3752 29.7842 20.8244 29.1006C20.2697 28.4131 19.5432 27.1162 19.6525 27.0108C19.719 26.9483 22.9299 25.624 23.0275 25.6201C23.0588 25.6162 23.1096 25.8155 23.1369 26.0576ZM19.1994 27.9912C19.5393 28.6944 20.3166 29.71 21.1682 30.5694C21.715 31.1201 21.8518 31.2998 21.7658 31.3545C21.383 31.6123 19.676 32.4131 18.5979 32.835C17.2893 33.3506 15.59 33.9366 15.551 33.8897C15.5354 33.8741 15.926 33.1631 16.4182 32.3116C17.4846 30.46 18.8322 27.8428 18.8322 27.628C18.8322 27.3545 18.9455 27.4639 19.1994 27.9912ZM17.1838 28.0342C17.1643 28.0889 17.0002 28.4951 16.8244 28.9444C16.0666 30.8662 14.594 33.4756 14.2658 33.4756C14.0119 33.4756 13.6369 31.9561 13.5315 30.4951L13.4768 29.7608L15.2775 28.8506C16.2697 28.3506 17.1096 27.9405 17.1525 27.9405C17.1877 27.9366 17.2033 27.9795 17.1838 28.0342ZM29.2072 29.8116C29.215 30.917 28.7502 33.5928 28.5041 33.8623C28.4025 33.9756 27.258 33.5537 26.2307 33.0225C25.3088 32.5459 23.7932 31.6045 23.7932 31.5108C23.7932 31.4834 24.0236 31.3662 24.3127 31.2451C24.8596 31.0147 27.4025 29.6553 28.4807 29.0186L29.1018 28.6514L29.1565 28.9326C29.176 29.085 29.2033 29.4873 29.2072 29.8116ZM12.2424 31.0889C12.3479 31.9639 12.6174 33.0342 12.9533 33.8858C13.09 34.2334 13.1877 34.5342 13.1721 34.5498C13.0393 34.6709 7.62911 36.1592 6.91426 36.2725L6.57442 36.3272L6.6252 36.0655C6.69942 35.6944 7.22286 34.6241 7.61348 34.0459C8.09786 33.3272 9.29708 32.1241 10.09 31.5655C10.6799 31.1475 12.1018 30.3194 12.1447 30.3662C12.1486 30.3701 12.1955 30.6944 12.2424 31.0889ZM24.5158 32.9326C26.1877 33.7334 26.8205 34.0108 27.6213 34.2881L28.2346 34.4991L27.8479 34.6944C25.6565 35.8037 21.7815 37.3858 20.7775 37.5811C20.5549 37.6241 20.5236 37.6123 20.5666 37.503C20.7385 37.0537 23.051 32.2764 23.094 32.2764C23.1213 32.2725 23.7658 32.5733 24.5158 32.9326ZM21.5744 32.753C21.4572 33.3155 20.8205 35.1397 20.4494 35.9678C20.1291 36.6866 19.3869 38.0889 19.2541 38.2217C19.1955 38.2803 17.8752 37.5342 17.2502 37.0889C16.5471 36.5889 15.008 35.1045 15.051 34.9678C15.0666 34.917 16.0041 34.5576 17.133 34.167C19.5119 33.3467 20.844 32.8506 21.2307 32.6514C21.6057 32.4561 21.6369 32.4678 21.5744 32.753ZM28.2268 35.2725C28.2033 35.4366 28.0705 36.1553 27.926 36.8819C27.4729 39.1592 26.9221 40.7139 26.5705 40.7139C26.0861 40.7139 22.7697 39.9092 21.6994 39.5303C20.9729 39.2725 20.344 38.9795 20.1369 38.7959C20.008 38.6826 20.0744 38.6436 21.0275 38.253C24.094 37.003 27.6291 35.4092 28.0119 35.1045C28.2346 34.9287 28.2697 34.9522 28.2268 35.2725ZM12.7111 35.9678C12.3635 36.5889 11.6486 37.6162 10.2893 39.4522L9.12911 41.0147L8.78145 40.7647C8.29317 40.417 7.51973 39.5733 7.19551 39.0381C6.84786 38.4639 6.60958 37.7569 6.58223 37.2178L6.5588 36.7998L7.13301 36.7412C7.91036 36.6631 10.0822 36.2139 11.633 35.8076C12.3361 35.6241 12.9221 35.4834 12.9377 35.4951C12.9494 35.5108 12.8479 35.7217 12.7111 35.9678ZM16.0822 37.5733C16.469 37.8506 17.0002 38.2022 17.2736 38.3623L17.7697 38.6514L17.5471 38.7451C17.4221 38.7959 15.6213 39.4522 13.5393 40.2061C9.98458 41.4912 9.7502 41.5655 9.65254 41.4326C9.59395 41.3545 9.55489 41.2725 9.5627 41.2451C9.57051 41.2178 10.5315 39.9795 11.6994 38.4834L13.8205 35.7686L14.6018 36.4209C15.0393 36.7842 15.6955 37.2959 16.0822 37.5733ZM16.9572 41.6553C16.1799 42.8155 15.5236 43.7959 15.5002 43.8272C15.4416 43.9053 14.1994 43.6123 13.2697 43.3037C12.2932 42.9756 11.09 42.3662 10.6213 41.9639L10.2815 41.6709L11.0471 41.4639C14.1838 40.6084 18.3322 39.5108 18.3518 39.5264C18.3674 39.5303 17.7346 40.4951 16.9572 41.6553ZM20.6916 39.8975C22.3518 40.4678 23.8674 40.792 25.8322 41.003L26.3752 41.0616L24.9104 41.5889C21.2541 42.9092 18.2932 43.835 16.801 44.1241C16.383 44.2061 16.0002 44.2725 15.9572 44.2725C15.9143 44.2725 16.215 43.8623 16.6252 43.3662C17.7424 42.003 18.9533 40.4522 19.2736 39.9756C19.4299 39.7451 19.5861 39.5498 19.6213 39.5498C19.6565 39.5537 20.133 39.7061 20.6916 39.8975ZM26.1408 42.9756C25.5119 44.6006 25.051 45.5889 24.8869 45.6514C24.5744 45.7725 20.258 45.1358 18.9416 44.7803C18.0666 44.542 17.508 44.3116 17.6721 44.253C17.7346 44.2295 18.3596 44.085 19.0666 43.9248C21.3518 43.4092 24.8361 42.3506 26.2775 41.7334C26.465 41.6553 26.6291 41.5967 26.6408 41.6084C26.6486 41.6201 26.426 42.2334 26.1408 42.9756Z" fill="white"/>
</svg>
