<svg width="50" height="50" viewBox="0 0 50 50" fill="none" xmlns="http://www.w3.org/2000/svg">
<path d="M12.0199 38.8372H10.0911C10.026 35.5776 9.83887 32.5028 9.52962 29.6126L6.57552 38.8372H5.10661L2.18506 29.6126C1.97076 32.3805 1.83512 35.4554 1.77816 38.8372H0C0.113932 34.722 0.398763 30.8635 0.854492 27.2617H3.25521L6.03841 35.765L8.83789 27.2617H11.1247C11.6238 31.4774 11.9194 35.3358 12.0117 38.8372H12.0199Z" fill="#00758F"/>
<path d="M20.3896 30.2969C19.6057 34.5697 18.5694 37.6798 17.281 39.6273C16.28 41.1241 15.1813 41.871 13.9851 41.8683C13.5785 41.8488 13.1795 41.752 12.8091 41.5831V40.5523C13.0789 40.588 13.3509 40.6043 13.6229 40.6012C14.1146 40.6241 14.5964 40.4579 14.9697 40.1367C15.1575 39.9824 15.3096 39.7893 15.4157 39.5705C15.5219 39.3518 15.5793 39.1127 15.5842 38.8695C15.5051 38.1954 15.3452 37.5333 15.1081 36.8974L12.9922 30.2969H14.8843L16.4061 35.2351C16.7479 36.357 16.8903 37.1392 16.8333 37.582C17.694 35.2294 18.2784 32.7847 18.5749 30.2969H20.3896Z" fill="#00758F"/>
<path d="M28.8413 35.627C28.8533 36.085 28.7631 36.5398 28.5773 36.9585C28.3914 37.3773 28.1146 37.7492 27.7671 38.0472C26.9543 38.7065 25.9269 39.0417 24.8822 38.9884C23.7069 38.977 22.563 38.6075 21.6025 37.929L22.099 36.9348C22.8597 37.3517 23.7065 37.5861 24.573 37.6193C25.1515 37.6517 25.7244 37.4897 26.2005 37.159C26.3983 37.0084 26.5581 36.8135 26.667 36.5898C26.7758 36.3663 26.8307 36.1202 26.8272 35.8714C26.8272 35.1868 26.3511 34.6002 25.4722 34.1072C24.6584 33.659 23.0308 32.73 23.0308 32.73C22.6153 32.4751 22.2744 32.1147 22.043 31.6854C21.8114 31.2561 21.6974 30.7731 21.7124 30.2853C21.6979 29.857 21.7787 29.4307 21.949 29.0374C22.1193 28.6442 22.3749 28.2938 22.6971 28.0117C23.4035 27.4144 24.3083 27.1046 25.2321 27.144C26.2681 27.1352 27.2834 27.4344 28.1496 28.0036L27.7305 28.9652C27.0319 28.6548 26.2772 28.4912 25.5129 28.4844C25.0224 28.4456 24.5351 28.5908 24.1458 28.8918C23.985 29.0267 23.8555 29.195 23.7663 29.385C23.6771 29.5748 23.6302 29.7821 23.629 29.992C23.629 30.6765 24.1172 31.2713 25.0164 31.7725C25.8303 32.2166 27.4904 33.166 27.4904 33.166C28.3938 33.8056 28.8413 34.4902 28.8413 35.6106V35.627Z" fill="#F29111"/>
<path fill-rule="evenodd" clip-rule="evenodd" d="M32.2874 36.5183C31.8236 35.7645 31.5876 34.5544 31.5876 32.888C31.5876 29.9708 32.4705 28.5134 34.2365 28.5161C34.6382 28.4887 35.0398 28.5712 35.3982 28.755C35.7567 28.9388 36.0584 29.2168 36.2709 29.5592C36.7402 30.3117 36.9736 31.5122 36.9708 33.161C36.9708 36.1001 36.0892 37.5682 34.326 37.5655C33.9244 37.5921 33.523 37.5091 33.1648 37.3254C32.8066 37.1418 32.5047 36.8642 32.2915 36.5224L32.2874 36.5183ZM39.1518 39.1138L37.0278 38.0666C37.2199 37.9111 37.397 37.7379 37.5568 37.5492C38.4574 36.4871 38.9077 34.9158 38.9077 32.8351C38.9077 29.0051 37.4157 27.0901 34.4318 27.0901C33.7842 27.0553 33.1374 27.1693 32.5407 27.4237C31.9439 27.6779 31.4134 28.0655 30.9894 28.5569C30.0915 29.6216 29.6426 31.1876 29.6426 33.2548C29.6426 35.3219 30.0414 36.8158 30.8388 37.7366C31.5631 38.5922 32.6618 39.0241 34.1307 39.0241C34.641 39.0287 35.1494 38.96 35.6402 38.8204L38.399 40.4299L39.1518 39.1301V39.1138Z" fill="#F29111"/>
<path d="M46.0694 38.8372H40.5884V27.2617H42.4317V37.4112H46.0694V38.8372Z" fill="#F29111"/>
<path d="M47.3837 38.8321H47.6888V37.6545H48.0957V37.4141H46.9727V37.6545H47.3795V38.8321H47.3837ZM49.7111 38.8321H50V37.4141H49.5647L49.2107 38.3838L48.8281 37.4141H48.4212V38.8321H48.6939V37.7564L49.1008 38.8321H49.3082L49.7152 37.7564V38.8321H49.7111Z" fill="#F29111"/>
<path fill-rule="evenodd" clip-rule="evenodd" d="M48.3846 23.3859C47.4653 23.3271 46.544 23.466 45.6827 23.7933C45.4752 23.8789 45.1416 23.8789 45.1131 24.1438C45.223 24.2538 45.2352 24.4371 45.3369 24.592C45.5254 24.9158 45.7692 25.204 46.0571 25.4436C46.3501 25.6677 46.6431 25.8917 46.9523 26.0873C47.4935 26.4215 48.1079 26.617 48.6328 26.9551C48.9421 27.1507 49.2472 27.3992 49.5564 27.6111C49.707 27.7211 49.8046 27.9045 50 27.9738V27.933C49.9023 27.8067 49.8739 27.6233 49.7762 27.4848L49.3693 27.0773C48.9605 26.5356 48.4722 26.0588 47.9207 25.6636C47.4731 25.3539 46.4965 24.9342 46.3175 24.4412L46.2891 24.4127C46.6153 24.3657 46.9367 24.2892 47.2493 24.1846C47.7254 24.0623 48.1567 24.0908 48.641 23.9645C48.8647 23.9075 49.0885 23.8382 49.3123 23.7689V23.6427C49.0601 23.39 48.881 23.0559 48.6165 22.8278C47.8944 22.1977 47.1259 21.6229 46.3175 21.1083C45.8862 20.8312 45.3287 20.6479 44.869 20.4116C44.7021 20.326 44.4254 20.2852 44.3277 20.1427C44.0983 19.8059 43.906 19.4452 43.7541 19.067C43.3472 18.301 42.9403 17.4372 42.6147 16.6223C42.4117 16.0672 42.1767 15.5245 41.9107 14.9967C40.6159 12.7936 38.7464 10.9851 36.5031 9.76506C35.9393 9.4904 35.3392 9.2983 34.7209 9.19464C34.375 9.19464 34.0251 9.14981 33.6792 9.13759C33.4531 8.99075 33.2382 8.82732 33.0363 8.64866C32.2225 8.14342 30.188 7.05555 29.6102 8.49383C29.2359 9.40651 30.1676 10.2988 30.4891 10.7592C30.7577 11.085 30.9947 11.4356 31.1971 11.8063C31.2947 12.0468 31.3232 12.2993 31.4209 12.5479C31.6252 13.1865 31.867 13.8122 32.1452 14.4221C32.2959 14.7238 32.4686 15.0138 32.662 15.29C32.7717 15.4448 32.9671 15.5141 33.0077 15.7667C32.855 16.0997 32.7482 16.452 32.6904 16.8139C32.1859 18.3948 32.3812 20.3505 33.0973 21.5117C33.3171 21.8621 33.8501 22.6321 34.5581 22.3266C35.1847 22.078 35.0464 21.2795 35.2295 20.5827C35.2702 20.4116 35.2295 20.3016 35.3231 20.1752V20.1997C35.5184 20.6071 35.73 20.9698 35.8967 21.3609C36.3906 22.089 37.0011 22.7305 37.7034 23.2597C38.0371 23.5122 38.3015 23.9441 38.7206 24.099V24.0746H38.6922C38.5979 23.9671 38.4897 23.8726 38.3707 23.7933C38.1064 23.5343 37.8641 23.2536 37.6464 22.954C37.056 22.1509 36.5346 21.299 36.0881 20.4076C35.8642 19.9716 35.6811 19.4948 35.4899 19.0629C35.4044 18.8959 35.4044 18.6555 35.2661 18.5618C35.0033 18.8461 34.7752 19.1607 34.5865 19.4989C34.3535 20.18 34.2166 20.8905 34.1796 21.6095C34.1227 21.6095 34.1512 21.6095 34.1227 21.638C33.6792 21.5239 33.5245 21.0635 33.3577 20.6723C32.9237 19.4727 32.8796 18.1665 33.2316 16.9401C33.3292 16.6468 33.7483 15.7178 33.5774 15.4448C33.4961 15.1759 33.2153 15.0373 33.0647 14.8133C32.8691 14.533 32.7014 14.2341 32.5643 13.921C32.2306 13.1347 32.0597 12.2708 31.7016 11.4763C31.4981 11.0992 31.2641 10.7395 31.0017 10.4007C30.7121 10.0638 30.4559 9.69946 30.2367 9.31279C30.1676 9.15797 30.07 8.90535 30.1799 8.7383C30.1883 8.69073 30.2119 8.64719 30.2471 8.61416C30.2823 8.58111 30.3272 8.56035 30.3752 8.55495C30.5583 8.40012 31.071 8.59569 31.2541 8.68126C31.7493 8.86861 32.2217 9.11194 32.662 9.40651C32.8572 9.54504 33.0689 9.81396 33.313 9.87915H33.606C34.0535 9.97693 34.554 9.90767 34.9731 10.034C35.68 10.2695 36.354 10.594 36.9792 10.9996C38.8241 12.1808 40.3224 13.8316 41.3207 15.783C41.4916 16.1008 41.5609 16.3982 41.7276 16.7323C42.0206 17.4169 42.3827 18.1177 42.6757 18.7696C42.933 19.43 43.2647 20.0588 43.6645 20.6438C43.8761 20.9372 44.7103 21.092 45.0846 21.2469C45.4131 21.3652 45.7351 21.5012 46.049 21.6543C46.521 21.9477 46.993 22.2818 47.4405 22.6037C47.6603 22.7748 48.3602 23.1211 48.4009 23.4186L48.3846 23.3859Z" fill="#00758F"/>
<path fill-rule="evenodd" clip-rule="evenodd" d="M34.1796 11.2325C33.986 11.2305 33.793 11.2552 33.606 11.3059V11.3344H33.6344C33.77 11.5349 33.9195 11.7255 34.082 11.9048C34.1918 12.1289 34.2895 12.353 34.3994 12.5771L34.4278 12.5485C34.5312 12.4664 34.6122 12.3595 34.6634 12.2378C34.7146 12.116 34.7344 11.9833 34.7208 11.8519C34.6394 11.7541 34.6232 11.6563 34.554 11.5584C34.4848 11.4606 34.2895 11.3506 34.1796 11.2366V11.2325Z" fill="#00758F"/>
</svg>
