<svg width="50" height="50" viewBox="0 0 50 50" fill="none" xmlns="http://www.w3.org/2000/svg">
<g clip-path="url(#clip0_443_52)">
<mask id="mask0_443_52" style="mask-type:luminance" maskUnits="userSpaceOnUse" x="0" y="0" width="50" height="50">
<path d="M50 0H0V50H50V0Z" fill="white"/>
</mask>
<g mask="url(#mask0_443_52)">
<path d="M23.3626 0.0134552C23.2551 0.0232289 22.913 0.0574371 22.6051 0.0818714C15.5034 0.72205 8.85143 4.55336 4.63832 10.442C2.29228 13.7162 0.791789 17.4302 0.224829 21.3642C0.0244379 22.7374 0 23.143 0 25.0049C0 26.8668 0.0244379 27.2724 0.224829 28.6456C1.58358 38.0332 8.26489 45.9207 17.3265 48.8429C18.9492 49.3661 20.6598 49.7225 22.6051 49.9379C23.3626 50.0207 26.6374 50.0207 27.3949 49.9379C30.7527 49.5664 33.5973 48.7354 36.4029 47.3036C36.8329 47.0839 36.9161 47.025 36.8571 46.9764C36.8182 46.9468 34.9853 44.4889 32.7859 41.5175L28.7879 36.1175L23.7781 28.7043C21.0215 24.6286 18.7537 21.2958 18.7341 21.2958C18.7146 21.2909 18.695 24.5846 18.6853 28.6065C18.6706 35.6485 18.6657 35.9318 18.5777 36.0982C18.4506 36.3375 18.3529 36.4354 18.1476 36.5429C17.9912 36.6211 17.8544 36.6357 17.1163 36.6357H16.2708L16.0459 36.4939C15.8993 36.4011 15.7918 36.2789 15.7185 36.1371L15.6158 35.9171L15.6256 26.1191L15.6403 16.316L15.7918 16.1255C15.87 16.0228 16.0362 15.8909 16.1535 15.8274C16.3539 15.7296 16.4321 15.7199 17.2776 15.7199C18.2747 15.7199 18.4409 15.7589 18.6999 16.0424C18.7732 16.1206 21.4858 20.206 24.7312 25.1271C27.9765 30.0481 32.4145 36.7675 34.5943 40.0661L38.5532 46.0625L38.7536 45.9304C40.5279 44.7771 42.4046 43.135 43.8904 41.4246C47.0529 37.7939 49.0911 33.3663 49.775 28.6456C49.9757 27.2724 50 26.8668 50 25.0049C50 23.143 49.9757 22.7374 49.775 21.3642C48.4164 11.9765 41.735 4.08911 32.6735 1.16676C31.0753 0.648746 29.3744 0.292007 27.4682 0.0769843C26.999 0.0281158 23.7683 -0.0256398 23.3626 0.0134552ZM33.5973 15.1334C33.8319 15.2507 34.0225 15.4755 34.0909 15.7101C34.13 15.8371 34.1398 18.5542 34.13 24.6775L34.1154 33.4641L32.566 31.089L31.0117 28.714V22.3269C31.0117 18.1975 31.0313 15.8762 31.0606 15.7638C31.1388 15.4902 31.3099 15.2751 31.5445 15.1481C31.7449 15.0455 31.8182 15.0357 32.5855 15.0357C33.3089 15.0357 33.436 15.0455 33.5973 15.1334Z" fill="white"/>
</g>
</g>
<defs>
<clipPath id="clip0_443_52">
<rect width="50" height="50" fill="white"/>
</clipPath>
</defs>
</svg>
