<svg width="50" height="50" viewBox="0 0 50 50" fill="none" xmlns="http://www.w3.org/2000/svg">
<path d="M45.3728 37.9872L28.2257 1.57287C27.7917 0.659879 26.892 0.0583526 25.8825 0.00610913C24.8706 -0.0616892 23.9049 0.438897 23.3771 1.30489L4.77921 31.4273C4.20185 32.3558 4.214 33.5346 4.81038 34.4511L13.9031 48.532C14.6095 49.6175 15.9459 50.109 17.1874 49.7398L43.5742 41.9346C44.3781 41.6996 45.0405 41.1276 45.3903 40.3666C45.7352 39.6093 45.7293 38.7385 45.3741 37.986L45.3728 37.9872ZM41.5338 39.549L19.143 46.17C18.46 46.3732 17.8044 45.7811 17.9465 45.0918L25.946 6.78791C26.0956 6.07122 27.0853 5.95779 27.3981 6.62089L42.2069 38.0682C42.3394 38.3518 42.341 38.6792 42.2113 38.9641C42.0815 39.249 41.8335 39.4628 41.5326 39.549H41.5338Z" fill="white"/>
</svg>
