<svg width="50" height="50" viewBox="0 0 50 50" fill="none" xmlns="http://www.w3.org/2000/svg">
<path d="M24.9315 29.285C27.2975 29.285 29.2156 27.3669 29.2156 25.0009C29.2156 22.6349 27.2975 20.7168 24.9315 20.7168C22.5655 20.7168 20.6475 22.6349 20.6475 25.0009C20.6475 27.3669 22.5655 29.285 24.9315 29.285Z" fill="#61DAFB"/>
<path fill-rule="evenodd" clip-rule="evenodd" d="M4.09528 21.965C2.99569 22.9576 2.45868 23.9837 2.45868 24.9991C2.45868 26.0145 2.99569 27.0407 4.09528 28.0333C5.19478 29.0259 6.81475 29.9434 8.86035 30.7244C12.948 32.2851 18.6299 33.2613 24.9314 33.2613C31.233 33.2613 36.9148 32.2851 41.0026 30.7244C43.048 29.9434 44.668 29.0259 45.7676 28.0333C46.8673 27.0407 47.4041 26.0145 47.4041 24.9991C47.4041 23.9837 46.8673 22.9576 45.7676 21.965C44.668 20.9724 43.048 20.0549 41.0026 19.2739C36.9148 17.7131 31.233 16.737 24.9314 16.737C18.6299 16.737 12.948 17.7131 8.86035 19.2739C6.81475 20.0549 5.19478 20.9724 4.09528 21.965ZM8.49296 18.3117C12.7252 16.6957 18.5372 15.707 24.9314 15.707C31.3256 15.707 37.1376 16.6957 41.3698 18.3117C43.4841 19.119 45.2309 20.0928 46.4576 21.2004C47.6848 22.308 48.4341 23.5908 48.4341 24.9991C48.4341 26.4075 47.6848 27.6903 46.4576 28.7979C45.2309 29.9055 43.4841 30.8793 41.3698 31.6866C37.1376 33.3026 31.3256 34.2912 24.9314 34.2912C18.5372 34.2912 12.7252 33.3026 8.49296 31.6866C6.3786 30.8793 4.63207 29.9055 3.4051 28.7979C2.1782 27.6903 1.42871 26.4075 1.42871 24.9991C1.42871 23.5908 2.1782 22.308 3.4051 21.2004C4.63207 20.0928 6.3786 19.119 8.49296 18.3117Z" fill="#61DAFB"/>
<path fill-rule="evenodd" clip-rule="evenodd" d="M17.1408 5.43914C15.7314 4.98321 14.5742 5.03125 13.6948 5.53893C12.8155 6.04661 12.1953 7.02478 11.8855 8.47336C11.5756 9.92182 11.5911 11.7835 11.9375 13.9456C12.6296 18.266 14.6252 23.6746 17.776 29.132C20.9268 34.5893 24.6131 39.022 28.0085 41.7816C29.7077 43.1623 31.3123 44.1066 32.7216 44.5627C34.131 45.0184 35.2882 44.9705 36.1674 44.4627C37.0471 43.9552 37.6671 42.977 37.9771 41.5284C38.2867 40.0798 38.2713 38.2184 37.9249 36.0563C37.2328 31.7358 35.2372 26.3271 32.0865 20.8698C28.9357 15.4125 25.2494 10.9799 21.8539 8.22028C20.1547 6.83928 18.5502 5.89511 17.1408 5.43914ZM22.5035 7.42103C26.0191 10.2783 29.7813 14.8173 32.9784 20.3548C36.1756 25.8924 38.2253 31.4201 38.9421 35.8934C39.2999 38.128 39.3299 40.1273 38.9842 41.7437C38.6385 43.3602 37.9024 44.6505 36.6824 45.3548C35.4629 46.0591 33.9772 46.0513 32.4046 45.5427C30.8319 45.0338 29.1152 44.008 27.3589 42.5809C23.8433 39.7234 20.0811 35.1845 16.884 29.6469C13.6869 24.1094 11.6371 18.5817 10.9205 14.1085C10.5624 11.8737 10.5326 9.87428 10.8783 8.25793C11.224 6.64161 11.9602 5.35114 13.1799 4.64696C14.3995 3.94278 15.8852 3.95043 17.4578 4.45918C19.0306 4.96796 20.7472 5.99357 22.5035 7.42103Z" fill="#61DAFB"/>
<path fill-rule="evenodd" clip-rule="evenodd" d="M37.977 8.47334C37.667 7.02476 37.047 6.04662 36.1677 5.53891C35.2882 5.03123 34.131 4.98319 32.7216 5.43916C31.3122 5.89509 29.7078 6.83926 28.0085 8.2203C24.6131 10.9799 20.9268 15.4125 17.776 20.8698C14.6252 26.3271 12.6296 31.7358 11.9375 36.0562C11.5911 38.2184 11.5756 40.0798 11.8855 41.5284C12.1953 42.9769 12.8155 43.9552 13.6949 44.4627C14.5742 44.9705 15.7314 45.0187 17.1408 44.5627C18.5502 44.1066 20.1547 43.1627 21.8539 41.7816C25.2494 39.0219 28.9356 34.5893 32.0864 29.1319C35.2372 23.6746 37.2328 18.2659 37.9249 13.9456C38.2713 11.7835 38.2867 9.92184 37.977 8.47334ZM38.942 14.1085C38.2252 18.5817 36.1756 24.1094 32.9784 29.6469C29.7813 35.1845 26.0191 39.7234 22.5035 42.5809C20.7472 44.008 19.0305 45.0337 17.4579 45.5427C15.8852 46.0512 14.3995 46.0591 13.1799 45.3548C11.9602 44.6505 11.224 43.3602 10.8783 41.7437C10.5325 40.1273 10.5624 38.128 10.9205 35.8934C11.6371 31.4201 13.6869 25.8923 16.884 20.3548C20.0811 14.8173 23.8434 10.2783 27.3589 7.42101C29.1153 5.99359 30.8319 4.96798 32.4046 4.45919C33.9772 3.95044 35.4629 3.94276 36.6824 4.64694C37.9024 5.35112 38.6385 6.64159 38.9842 8.25791C39.3299 9.8743 39.2999 11.8738 38.942 14.1085Z" fill="#61DAFB"/>
</svg>
