<svg width="50" height="50" viewBox="0 0 50 50" fill="none" xmlns="http://www.w3.org/2000/svg">
<path d="M38.7669 12.2702C38.7429 12.0504 38.5471 11.9525 38.4013 11.9525C38.2554 11.9525 35.0575 11.7087 35.0575 11.7087C35.0575 11.7087 32.8367 9.48789 32.5679 9.2681C32.3242 9.02435 31.8596 9.09727 31.6648 9.14622C31.6409 9.14622 31.1763 9.2931 30.42 9.53685C29.6638 7.36393 28.37 5.38685 26.0513 5.38685H25.8315C25.195 4.55664 24.3659 4.16602 23.6825 4.16602C18.3127 4.16602 15.7252 10.8785 14.92 14.2962C12.8211 14.9556 11.3315 15.3941 11.1606 15.4681C9.98877 15.8337 9.96481 15.8587 9.81794 16.9566C9.69606 17.7868 6.64502 41.39 6.64502 41.39L30.395 45.8327L43.2836 43.0504C43.3075 43.0014 38.7919 12.49 38.7669 12.2702ZM29.1013 9.87747C28.5159 10.0483 27.8075 10.2681 27.1002 10.5118V10.0733C27.1002 8.7556 26.9294 7.68164 26.6117 6.82643C27.8315 6.97331 28.5888 8.31602 29.1013 9.87747ZM25.1221 7.09518C25.4398 7.92539 25.6596 9.09727 25.6596 10.7077V10.9514C24.3419 11.366 22.9502 11.7816 21.5096 12.2452C22.3148 9.17018 23.8534 7.65664 25.1221 7.09518ZM23.5596 5.58164C23.8034 5.58164 24.0481 5.67956 24.2429 5.82539C22.5096 6.6306 20.6794 8.65664 19.9221 12.7577C18.7752 13.1233 17.6763 13.441 16.6273 13.7827C17.5065 10.6587 19.7034 5.58164 23.5596 5.58164Z" fill="#7CB342"/>
<path d="M38.4011 11.9035C38.2542 11.9035 35.0574 11.6598 35.0574 11.6598C35.0574 11.6598 32.8365 9.43893 32.5678 9.21914C32.4688 9.12122 32.3469 9.07227 32.2501 9.07227L30.4678 45.8327L43.3563 43.0504C43.3563 43.0504 38.8407 12.49 38.8157 12.2702C38.7178 12.0504 38.5469 11.9525 38.4011 11.9035Z" fill="#558B2F"/>
<path d="M25.8248 19.3673L24.2883 24.0016C24.2883 24.0016 22.8956 23.2569 21.2394 23.2569C18.7664 23.2569 18.6466 24.8173 18.6466 25.2016C18.6466 27.3141 24.1685 28.1308 24.1685 33.1006C24.1685 37.0141 21.6956 39.535 18.3581 39.535C14.3248 39.535 12.3081 37.0381 12.3081 37.0381L13.3883 33.485C13.3883 33.485 15.5008 35.31 17.2779 35.31C18.4539 35.31 18.9341 34.3975 18.9341 33.7256C18.9341 30.9641 14.4206 30.8444 14.4206 26.2829C14.4206 22.4652 17.1581 18.7683 22.7039 18.7683C24.7675 18.7433 25.8248 19.3673 25.8248 19.3673Z" fill="white"/>
</svg>
