<svg width="50" height="50" viewBox="0 0 50 50" fill="none" xmlns="http://www.w3.org/2000/svg">
<g clip-path="url(#clip0_443_141)">
<path d="M18.8373 1.44191C25.1394 -0.174306 32.1047 0.767491 37.6627 4.19776C44.6627 8.3839 49.2326 16.3025 49.3488 24.4536C49.6047 32.686 45.3139 40.8489 38.4185 45.3257C30.7441 50.4884 20.1279 50.6862 12.2906 45.7792C4.30234 41.0116 -0.360555 31.3954 0.837296 22.1628C1.80214 12.4069 9.3373 3.80226 18.8373 1.44191Z" fill="#333333"/>
<path d="M17.8723 5.43108C29.7793 0.663499 44.384 9.46584 45.6164 22.2334C47.5351 33.7217 38.0002 45.3961 26.3605 45.7334C15.2908 46.8381 4.59316 37.4541 4.27929 26.3381C3.4537 17.3381 9.38398 8.40783 17.8723 5.43108Z" fill="#787878"/>
<path d="M19.0696 23.767C24.4069 19.4064 29.6278 14.8947 35.0813 10.6621C32.2208 15.0576 29.279 19.3947 26.4185 23.79C23.9649 23.8018 21.5116 23.802 19.0696 23.767ZM23.5813 26.1971C26.0464 26.1971 28.4999 26.1971 30.9534 26.232C25.5813 30.5691 20.3837 35.1156 14.9185 39.3367C17.779 34.9412 20.7208 30.5926 23.5813 26.1971Z" fill="#333333"/>
</g>
<defs>
<clipPath id="clip0_443_141">
<rect width="50" height="50" fill="white"/>
</clipPath>
</defs>
</svg>
