<svg width="50" height="50" viewBox="0 0 50 50" fill="none" xmlns="http://www.w3.org/2000/svg">
<g clip-path="url(#clip0_443_128)">
<mask id="mask0_443_128" style="mask-type:luminance" maskUnits="userSpaceOnUse" x="0" y="0" width="50" height="50">
<path d="M50 0H0V50H50V0Z" fill="white"/>
</mask>
<g mask="url(#mask0_443_128)">
<path d="M48.9534 0.357422H15.9893V16.8854H32.2091C32.787 16.8854 33.2558 17.3541 33.2558 17.932V33.928H49.9999V1.40596C50.0006 1.12805 49.8902 0.861343 49.6941 0.664647C49.4977 0.467954 49.2313 0.357422 48.9534 0.357422Z" fill="#8E75FF"/>
<path opacity="0.405" d="M15.9874 0.357422V16.8853H0.523357C0.31086 16.885 0.119607 16.7564 0.039099 16.5597C-0.0414085 16.3631 0.00475443 16.1372 0.155985 15.988L15.9874 0.357422ZM34.1475 49.5756C33.9969 49.7235 33.7724 49.7667 33.5778 49.6853C33.3831 49.6038 33.2562 49.4135 33.2559 49.2028V33.928H50L34.1475 49.5738V49.5756Z" fill="#8E75FF"/>
<path opacity="0.405" d="M15.9873 16.8848H32.7333C33.0204 16.8848 33.2557 17.1182 33.2557 17.4071V33.9274H17.0358C16.4578 33.9274 15.9892 33.4588 15.9892 32.8808V16.8848H15.9873Z" fill="#8E75FF"/>
</g>
</g>
<defs>
<clipPath id="clip0_443_128">
<rect width="50" height="50" fill="white"/>
</clipPath>
</defs>
</svg>
