<svg width="50" height="50" viewBox="0 0 50 50" fill="none" xmlns="http://www.w3.org/2000/svg">
<path fill-rule="evenodd" clip-rule="evenodd" d="M25 10C18.3333 10 14.1667 13.3333 12.5 20C15 16.6667 17.9167 15.4167 21.25 16.25C23.1519 16.725 24.5111 18.1056 26.0158 19.6324C28.4667 22.1204 31.3037 25 37.5 25C44.1668 25 48.3332 21.6667 50 15C47.5 18.3333 44.5832 19.5833 41.25 18.75C39.3482 18.275 37.9889 16.8944 36.4843 15.3676C34.0333 12.8796 31.1963 10 25 10ZM12.5 25C5.83332 25 1.66667 28.3333 0 35C2.5 31.6667 5.41668 30.4167 8.75 31.25C10.6519 31.7259 12.0111 33.1056 13.5158 34.6324C15.9667 37.1204 18.8037 40 25 40C31.6667 40 35.8332 36.6668 37.5 30C35 33.3333 32.0833 34.5833 28.75 33.75C26.8481 33.275 25.4889 31.8944 23.9843 30.3676C21.5333 27.8796 18.6963 25 12.5 25Z" fill="#38BDF8"/>
</svg>
