<svg width="50" height="50" viewBox="0 0 50 50" fill="none" xmlns="http://www.w3.org/2000/svg">
<g clip-path="url(#clip0_443_92)">
<mask id="mask0_443_92" style="mask-type:luminance" maskUnits="userSpaceOnUse" x="0" y="0" width="50" height="50">
<path d="M50 0H0V50H50V0Z" fill="white"/>
</mask>
<g mask="url(#mask0_443_92)">
<path d="M45.1171 0H4.88282C2.18611 0 0 2.18611 0 4.88282V45.1171C0 47.8139 2.18611 50 4.88282 50H45.1171C47.8139 50 50 47.8139 50 45.1171V4.88282C50 2.18611 47.8139 0 45.1171 0Z" fill="#3178C6"/>
<path d="M45.1171 0H4.88282C2.18611 0 0 2.18611 0 4.88282V45.1171C0 47.8139 2.18611 50 4.88282 50H45.1171C47.8139 50 50 47.8139 50 45.1171V4.88282C50 2.18611 47.8139 0 45.1171 0Z" fill="#3178C6"/>
<path fill-rule="evenodd" clip-rule="evenodd" d="M30.9511 39.7875V44.6764C31.7458 45.0836 32.6858 45.3893 33.7709 45.5929C34.8561 45.7964 35.9997 45.8986 37.2022 45.8986C38.3739 45.8986 39.4868 45.7864 40.5414 45.5622C41.5961 45.3382 42.5207 44.9689 43.3154 44.4547C44.1104 43.9404 44.7393 43.2682 45.2029 42.4382C45.6664 41.6079 45.8986 40.5818 45.8986 39.3597C45.8986 38.4736 45.7661 37.6972 45.5011 37.03C45.2361 36.3629 44.8539 35.7697 44.3547 35.2502C43.8557 34.7308 43.2568 34.2648 42.5589 33.8523C41.8611 33.4398 41.0739 33.0502 40.1975 32.6836C39.5557 32.4188 38.98 32.1616 38.4707 31.9121C37.9611 31.6625 37.5282 31.4079 37.1714 31.1483C36.815 30.8885 36.5397 30.6135 36.3461 30.3233C36.1525 30.0329 36.0557 29.7045 36.0557 29.3378C36.0557 29.0018 36.1425 28.6987 36.3157 28.4288C36.4889 28.1589 36.7336 27.9273 37.0493 27.7337C37.365 27.5403 37.7522 27.3899 38.2107 27.283C38.6693 27.1761 39.1786 27.1227 39.7393 27.1227C40.1468 27.1227 40.5772 27.1532 41.0307 27.2143C41.4839 27.2754 41.94 27.3697 42.3986 27.4969C42.8572 27.6242 43.3029 27.7847 43.7357 27.9782C44.1689 28.1717 44.5689 28.3957 44.9357 28.6504V24.0824C44.1918 23.7973 43.3793 23.5859 42.4979 23.4484C41.6164 23.3109 40.605 23.2422 39.4639 23.2422C38.3025 23.2422 37.2022 23.367 36.1629 23.6165C35.1235 23.866 34.2091 24.2556 33.4193 24.7852C32.6297 25.3149 32.0057 25.9895 31.5472 26.8095C31.0887 27.6293 30.8594 28.6096 30.8594 29.7503C30.8594 31.2068 31.2797 32.4493 32.1203 33.478C32.9608 34.5067 34.237 35.3774 35.9489 36.0904C36.6214 36.3654 37.2479 36.6354 37.8286 36.9C38.4097 37.165 38.9114 37.44 39.3339 37.725C39.7568 38.0104 40.0907 38.3211 40.3354 38.6572C40.5797 38.9932 40.7022 39.375 40.7022 39.8029C40.7022 40.1186 40.6257 40.4114 40.4729 40.6811C40.32 40.9511 40.0882 41.1854 39.7775 41.3839C39.4664 41.5825 39.0793 41.7379 38.6157 41.85C38.1522 41.9622 37.6097 42.0179 36.9882 42.0179C35.9286 42.0179 34.879 41.8322 33.8397 41.4604C32.8004 41.0886 31.8375 40.5311 30.9511 39.7875ZM22.7324 27.7424H29.0039V23.7305H11.5234V27.7424H17.7643V45.6054H22.7324V27.7424Z" fill="white"/>
</g>
</g>
<defs>
<clipPath id="clip0_443_92">
<rect width="50" height="50" fill="white"/>
</clipPath>
</defs>
</svg>
