<svg width="26" height="26" viewBox="0 0 26 26" fill="none" xmlns="http://www.w3.org/2000/svg">
<g clip-path="url(#clip0_413_1425)">
<path d="M8.67298 25.5015C9.54401 25.5015 9.79017 25.1606 9.79017 24.7251C9.79017 24.2896 9.79017 23.3428 9.77123 21.9984C5.24569 22.9641 4.27999 19.8398 4.27999 19.8398C3.54151 18.0031 2.4622 17.4918 2.4622 17.4918C0.98524 16.5072 2.57581 16.5261 2.57581 16.5261C4.20425 16.6397 5.07527 18.1735 5.07527 18.1735C6.53329 20.6351 8.88127 19.9155 9.8091 19.499C9.88485 18.6847 10.2446 17.9084 10.8505 17.3403C7.2339 16.9427 3.4279 15.5604 3.4279 9.42536C3.40896 7.83479 4.01489 6.28209 5.11314 5.12704C4.92379 4.7294 4.37466 3.10096 5.24569 0.885524C5.24569 0.885524 6.60903 0.450011 9.73336 2.5329C12.4032 1.81336 15.2057 1.81336 17.8756 2.5329C20.962 0.468947 22.3443 0.885524 22.3443 0.885524C23.2153 3.08202 22.6662 4.71046 22.5147 5.12704C23.613 6.28209 24.2 7.83479 24.181 9.42536C24.181 15.5793 20.375 16.9237 16.7394 17.3214C17.3075 17.7948 17.8377 18.7794 17.8377 20.2753C17.8377 22.4339 17.8187 24.1381 17.8187 24.6494C17.8187 25.0659 18.0081 25.4068 18.9359 25.4068L8.67298 25.5015Z" fill="white"/>
</g>
<defs>
<clipPath id="clip0_413_1425">
<rect width="24.6538" height="24.6538" fill="white" transform="translate(0.847656 0.847656)"/>
</clipPath>
</defs>
</svg>
