<svg width="27" height="27" viewBox="0 0 27 27" fill="none" xmlns="http://www.w3.org/2000/svg">
<path d="M20.4916 5.00781C19.6337 5.00781 18.9434 5.69812 18.9434 6.55607C18.9434 7.41402 19.6337 8.10433 20.4916 8.10433C21.3496 8.10433 22.0399 7.41402 22.0399 6.55607C22.0399 5.69812 21.3397 5.00781 20.4916 5.00781Z" fill="white"/>
<path d="M13.5989 6.99219C10.0093 6.99219 7.09033 9.9112 7.09033 13.5008C7.09033 17.0904 10.0093 20.0094 13.5989 20.0094C17.1885 20.0094 20.1075 17.0904 20.1075 13.5008C20.1075 9.9112 17.1885 6.99219 13.5989 6.99219ZM13.5989 17.6722C11.3012 17.6722 9.42751 15.7985 9.42751 13.5008C9.42751 11.2031 11.3012 9.32937 13.5989 9.32937C15.8967 9.32937 17.7704 11.2031 17.7704 13.5008C17.7704 15.7985 15.8967 17.6722 13.5989 17.6722Z" fill="white"/>
<path d="M18.7662 26.714H8.2144C3.83589 26.714 0.275879 23.154 0.275879 18.7755V8.22368C0.275879 3.84516 3.83589 0.285156 8.2144 0.285156H18.7662C23.1447 0.285156 26.7048 3.84516 26.7048 8.22368V18.7755C26.7048 23.154 23.1447 26.714 18.7662 26.714ZM8.2144 2.77026C5.20664 2.77026 2.76099 5.21592 2.76099 8.22368V18.7755C2.76099 21.7833 5.20664 24.2289 8.2144 24.2289H18.7662C21.774 24.2289 24.2196 21.7833 24.2196 18.7755V8.22368C24.2196 5.21592 21.774 2.77026 18.7662 2.77026H8.2144Z" fill="white"/>
</svg>
