<svg width="21" height="20" viewBox="0 0 21 20" fill="none" xmlns="http://www.w3.org/2000/svg">
<path d="M1.0725 6.84982H5.11572V19.8276H1.0725V6.84982ZM3.09411 0.400391C4.38597 0.400391 5.43129 1.44571 5.43129 2.73757C5.43129 4.02942 4.38597 5.07474 3.09411 5.07474C1.80225 5.07474 0.74707 4.02942 0.74707 2.73757C0.756932 1.44571 1.80225 0.400391 3.09411 0.400391Z" fill="white"/>
<path d="M7.65 6.85082H11.5157V8.6259H11.565C12.1074 7.6003 13.419 6.52539 15.3814 6.52539C19.4641 6.52539 20.2234 9.20773 20.2234 12.7086V19.8286H16.1901V13.5172C16.1901 12.0084 16.1605 10.0755 14.0896 10.0755C11.9891 10.0755 11.6735 11.7125 11.6735 13.4087V19.8286H7.64014V6.85082H7.65Z" fill="white"/>
</svg>
