<svg width="26" height="26" viewBox="0 0 26 26" fill="none" xmlns="http://www.w3.org/2000/svg">
<g clip-path="url(#clip0_413_1430)">
<path d="M19.9094 14.3507C18.7779 14.3507 17.7149 13.8731 16.752 13.0913L16.9847 11.9883L16.9924 11.9444C17.205 10.7728 17.8628 8.80322 19.9086 8.80322C21.4415 8.80322 22.6847 10.0472 22.6847 11.5793C22.6847 13.1075 21.4407 14.3515 19.9086 14.3515L19.9094 14.3507ZM19.9094 5.99405C17.302 5.99405 15.2754 7.6871 14.4536 10.4755C13.2019 8.59371 12.2467 6.33143 11.6937 4.42578H8.88529V11.731C8.88144 13.1753 7.71371 14.343 6.26945 14.3469C4.8252 14.343 3.65747 13.1714 3.65362 11.731V4.42578H0.845215V11.731C0.845215 14.7235 3.28004 17.1753 6.26945 17.1753C9.26195 17.1753 11.6937 14.7243 11.6937 11.731V10.5071C12.239 11.6424 12.9092 12.7978 13.7234 13.8169L12.0026 21.9009H14.8749L16.1227 16.0353C17.2142 16.7331 18.4698 17.1745 19.9102 17.1745C22.9912 17.1745 25.4946 14.655 25.4946 11.5777C25.4946 8.49666 22.9912 5.99328 19.9102 5.99328L19.9094 5.99405Z" fill="white"/>
</g>
<defs>
<clipPath id="clip0_413_1430">
<rect width="24.6486" height="24.6486" fill="white" transform="translate(0.845215 0.837891)"/>
</clipPath>
</defs>
</svg>
